<svg xmlns="http://www.w3.org/2000/svg" width="32.278" height="31.787" viewBox="0 0 32.278 31.787">
  <g id="Groupe_108" data-name="Groupe 108" transform="translate(0 -3)" opacity="0.699">
    <path id="Tracé_11" data-name="Tracé 11" d="M19.139,3A16.036,16.036,0,0,0,3,18.894,16.036,16.036,0,0,0,19.139,34.787,16.036,16.036,0,0,0,35.278,18.894,16.036,16.036,0,0,0,19.139,3Zm7.449,17.116H20.38v6.113a1.242,1.242,0,0,1-2.483,0V20.116H11.69a1.223,1.223,0,1,1,0-2.445H17.9V11.558a1.242,1.242,0,0,1,2.483,0v6.113h6.207a1.223,1.223,0,1,1,0,2.445Z" transform="translate(-3 0)" fill="#437eea"/>
  </g>
</svg>
