<svg xmlns="http://www.w3.org/2000/svg" width="245" height="237" viewBox="0 0 245 237">
  <g id="Groupe_123" data-name="Groupe 123" transform="translate(-1625 -321)">
    <rect id="Rectangle_67" data-name="Rectangle 67" width="245" height="237" transform="translate(1625 321)" fill="#feffff"/>
    <g id="Groupe_61" data-name="Groupe 61" transform="translate(0 2)">
      <g id="Groupe_60" data-name="Groupe 60" transform="translate(1644.661 358.175)">
        <path id="Tracé_45" data-name="Tracé 45" d="M0,0H57.369V30.011H0Z" transform="translate(0 0)" fill="#e7eaf0"/>
        <path id="Tracé_46" data-name="Tracé 46" d="M2887,379.052s7.46-16.3,14.375-8.377,5.845,8.82,9.475,8.377,4.587-17.062,13.285-19.2,20.235,19.2,20.235,19.2v5.583l-57.37.013Z" transform="translate(-2887 -354.637)" fill="#fbfcff"/>
        <ellipse id="Ellipse_2" data-name="Ellipse 2" cx="1.903" cy="2.039" rx="1.903" ry="2.039" transform="translate(18.489 7.811)" fill="#fbfcff"/>
      </g>
      <line id="Ligne_37" data-name="Ligne 37" x2="44.46" transform="translate(1644.5 393.18)" fill="none" stroke="#e6e6e6" stroke-width="2"/>
      <line id="Ligne_38" data-name="Ligne 38" x2="57.669" transform="translate(1644.5 397.724)" fill="none" stroke="#e6e6e6" stroke-width="2"/>
      <line id="Ligne_39" data-name="Ligne 39" x2="48.97" transform="translate(1644.5 402.59)" fill="none" stroke="#e6e6e6" stroke-width="2"/>
      <line id="Ligne_40" data-name="Ligne 40" x2="57.669" transform="translate(1644.5 407.456)" fill="none" stroke="#e6e6e6" stroke-width="2"/>
      <line id="Ligne_41" data-name="Ligne 41" x2="44.46" transform="translate(1644.5 412)" fill="none" stroke="#e6e6e6" stroke-width="2"/>
    </g>
    <g id="Groupe_64" data-name="Groupe 64" transform="translate(0 72)">
      <g id="Groupe_60-2" data-name="Groupe 60" transform="translate(1644.661 358.175)">
        <path id="Tracé_45-2" data-name="Tracé 45" d="M0,0H57.369V30.011H0Z" transform="translate(0 0)" fill="#e7eaf0"/>
        <path id="Tracé_46-2" data-name="Tracé 46" d="M2887,379.052s7.46-16.3,14.375-8.377,5.845,8.82,9.475,8.377,4.587-17.062,13.285-19.2,20.235,19.2,20.235,19.2v5.583l-57.37.013Z" transform="translate(-2887 -354.637)" fill="#fbfcff"/>
        <ellipse id="Ellipse_2-2" data-name="Ellipse 2" cx="1.903" cy="2.039" rx="1.903" ry="2.039" transform="translate(18.489 7.811)" fill="#fbfcff"/>
      </g>
      <line id="Ligne_37-2" data-name="Ligne 37" x2="44.46" transform="translate(1644.5 393.18)" fill="none" stroke="#e6e6e6" stroke-width="2"/>
      <line id="Ligne_38-2" data-name="Ligne 38" x2="57.669" transform="translate(1644.5 397.724)" fill="none" stroke="#e6e6e6" stroke-width="2"/>
      <line id="Ligne_39-2" data-name="Ligne 39" x2="48.97" transform="translate(1644.5 402.59)" fill="none" stroke="#e6e6e6" stroke-width="2"/>
      <line id="Ligne_40-2" data-name="Ligne 40" x2="57.669" transform="translate(1644.5 407.456)" fill="none" stroke="#e6e6e6" stroke-width="2"/>
      <line id="Ligne_41-2" data-name="Ligne 41" x2="44.46" transform="translate(1644.5 412)" fill="none" stroke="#e6e6e6" stroke-width="2"/>
    </g>
    <g id="Groupe_69" data-name="Groupe 69" transform="translate(0 142)">
      <g id="Groupe_60-3" data-name="Groupe 60" transform="translate(1644.661 358.175)">
        <path id="Tracé_45-3" data-name="Tracé 45" d="M0,0H57.369V30.011H0Z" transform="translate(0 0)" fill="#e7eaf0"/>
        <path id="Tracé_46-3" data-name="Tracé 46" d="M2887,379.052s7.46-16.3,14.375-8.377,5.845,8.82,9.475,8.377,4.587-17.062,13.285-19.2,20.235,19.2,20.235,19.2v5.583l-57.37.013Z" transform="translate(-2887 -354.637)" fill="#fbfcff"/>
        <ellipse id="Ellipse_2-3" data-name="Ellipse 2" cx="1.903" cy="2.039" rx="1.903" ry="2.039" transform="translate(18.489 7.811)" fill="#fbfcff"/>
      </g>
      <line id="Ligne_37-3" data-name="Ligne 37" x2="44.46" transform="translate(1644.5 393.18)" fill="none" stroke="#e6e6e6" stroke-width="2"/>
      <line id="Ligne_38-3" data-name="Ligne 38" x2="57.669" transform="translate(1644.5 397.724)" fill="none" stroke="#e6e6e6" stroke-width="2"/>
      <line id="Ligne_39-3" data-name="Ligne 39" x2="48.97" transform="translate(1644.5 402.59)" fill="none" stroke="#e6e6e6" stroke-width="2"/>
      <line id="Ligne_40-3" data-name="Ligne 40" x2="57.669" transform="translate(1644.5 407.456)" fill="none" stroke="#e6e6e6" stroke-width="2"/>
      <line id="Ligne_41-3" data-name="Ligne 41" x2="44.46" transform="translate(1644.5 412)" fill="none" stroke="#e6e6e6" stroke-width="2"/>
    </g>
    <g id="Groupe_62" data-name="Groupe 62" transform="translate(74 2)">
      <g id="Groupe_60-4" data-name="Groupe 60" transform="translate(1644.661 358.175)">
        <path id="Tracé_45-4" data-name="Tracé 45" d="M0,0H57.369V30.011H0Z" transform="translate(0 0)" fill="#e7eaf0"/>
        <path id="Tracé_46-4" data-name="Tracé 46" d="M2887,379.052s7.46-16.3,14.375-8.377,5.845,8.82,9.475,8.377,4.587-17.062,13.285-19.2,20.235,19.2,20.235,19.2v5.583l-57.37.013Z" transform="translate(-2887 -354.637)" fill="#fbfcff"/>
        <ellipse id="Ellipse_2-4" data-name="Ellipse 2" cx="1.903" cy="2.039" rx="1.903" ry="2.039" transform="translate(18.489 7.811)" fill="#fbfcff"/>
      </g>
      <line id="Ligne_37-4" data-name="Ligne 37" x2="44.46" transform="translate(1644.5 393.18)" fill="none" stroke="#e6e6e6" stroke-width="2"/>
      <line id="Ligne_38-4" data-name="Ligne 38" x2="57.669" transform="translate(1644.5 397.724)" fill="none" stroke="#e6e6e6" stroke-width="2"/>
      <line id="Ligne_39-4" data-name="Ligne 39" x2="48.97" transform="translate(1644.5 402.59)" fill="none" stroke="#e6e6e6" stroke-width="2"/>
      <line id="Ligne_40-4" data-name="Ligne 40" x2="57.669" transform="translate(1644.5 407.456)" fill="none" stroke="#e6e6e6" stroke-width="2"/>
      <line id="Ligne_41-4" data-name="Ligne 41" x2="44.46" transform="translate(1644.5 412)" fill="none" stroke="#e6e6e6" stroke-width="2"/>
    </g>
    <g id="Groupe_65" data-name="Groupe 65" transform="translate(74 72)">
      <g id="Groupe_60-5" data-name="Groupe 60" transform="translate(1644.661 358.175)">
        <path id="Tracé_45-5" data-name="Tracé 45" d="M0,0H57.369V30.011H0Z" transform="translate(0 0)" fill="#e7eaf0"/>
        <path id="Tracé_46-5" data-name="Tracé 46" d="M2887,379.052s7.46-16.3,14.375-8.377,5.845,8.82,9.475,8.377,4.587-17.062,13.285-19.2,20.235,19.2,20.235,19.2v5.583l-57.37.013Z" transform="translate(-2887 -354.637)" fill="#fbfcff"/>
        <ellipse id="Ellipse_2-5" data-name="Ellipse 2" cx="1.903" cy="2.039" rx="1.903" ry="2.039" transform="translate(18.489 7.811)" fill="#fbfcff"/>
      </g>
      <line id="Ligne_37-5" data-name="Ligne 37" x2="44.46" transform="translate(1644.5 393.18)" fill="none" stroke="#e6e6e6" stroke-width="2"/>
      <line id="Ligne_38-5" data-name="Ligne 38" x2="57.669" transform="translate(1644.5 397.724)" fill="none" stroke="#e6e6e6" stroke-width="2"/>
      <line id="Ligne_39-5" data-name="Ligne 39" x2="48.97" transform="translate(1644.5 402.59)" fill="none" stroke="#e6e6e6" stroke-width="2"/>
      <line id="Ligne_40-5" data-name="Ligne 40" x2="57.669" transform="translate(1644.5 407.456)" fill="none" stroke="#e6e6e6" stroke-width="2"/>
      <line id="Ligne_41-5" data-name="Ligne 41" x2="44.46" transform="translate(1644.5 412)" fill="none" stroke="#e6e6e6" stroke-width="2"/>
    </g>
    <g id="Groupe_68" data-name="Groupe 68" transform="translate(74 142)">
      <g id="Groupe_60-6" data-name="Groupe 60" transform="translate(1644.661 358.175)">
        <path id="Tracé_45-6" data-name="Tracé 45" d="M0,0H57.369V30.011H0Z" transform="translate(0 0)" fill="#e7eaf0"/>
        <path id="Tracé_46-6" data-name="Tracé 46" d="M2887,379.052s7.46-16.3,14.375-8.377,5.845,8.82,9.475,8.377,4.587-17.062,13.285-19.2,20.235,19.2,20.235,19.2v5.583l-57.37.013Z" transform="translate(-2887 -354.637)" fill="#fbfcff"/>
        <ellipse id="Ellipse_2-6" data-name="Ellipse 2" cx="1.903" cy="2.039" rx="1.903" ry="2.039" transform="translate(18.489 7.811)" fill="#fbfcff"/>
      </g>
      <line id="Ligne_37-6" data-name="Ligne 37" x2="44.46" transform="translate(1644.5 393.18)" fill="none" stroke="#e6e6e6" stroke-width="2"/>
      <line id="Ligne_38-6" data-name="Ligne 38" x2="57.669" transform="translate(1644.5 397.724)" fill="none" stroke="#e6e6e6" stroke-width="2"/>
      <line id="Ligne_39-6" data-name="Ligne 39" x2="48.97" transform="translate(1644.5 402.59)" fill="none" stroke="#e6e6e6" stroke-width="2"/>
      <line id="Ligne_40-6" data-name="Ligne 40" x2="57.669" transform="translate(1644.5 407.456)" fill="none" stroke="#e6e6e6" stroke-width="2"/>
      <line id="Ligne_41-6" data-name="Ligne 41" x2="44.46" transform="translate(1644.5 412)" fill="none" stroke="#e6e6e6" stroke-width="2"/>
    </g>
    <g id="Groupe_63" data-name="Groupe 63" transform="translate(148 2)">
      <g id="Groupe_60-7" data-name="Groupe 60" transform="translate(1644.661 358.175)">
        <path id="Tracé_45-7" data-name="Tracé 45" d="M0,0H57.369V30.011H0Z" transform="translate(0 0)" fill="#e7eaf0"/>
        <path id="Tracé_46-7" data-name="Tracé 46" d="M2887,379.052s7.46-16.3,14.375-8.377,5.845,8.82,9.475,8.377,4.587-17.062,13.285-19.2,20.235,19.2,20.235,19.2v5.583l-57.37.013Z" transform="translate(-2887 -354.637)" fill="#fbfcff"/>
        <ellipse id="Ellipse_2-7" data-name="Ellipse 2" cx="1.903" cy="2.039" rx="1.903" ry="2.039" transform="translate(18.489 7.811)" fill="#fbfcff"/>
      </g>
      <line id="Ligne_37-7" data-name="Ligne 37" x2="44.46" transform="translate(1644.5 393.18)" fill="none" stroke="#e6e6e6" stroke-width="2"/>
      <line id="Ligne_38-7" data-name="Ligne 38" x2="57.669" transform="translate(1644.5 397.724)" fill="none" stroke="#e6e6e6" stroke-width="2"/>
      <line id="Ligne_39-7" data-name="Ligne 39" x2="48.97" transform="translate(1644.5 402.59)" fill="none" stroke="#e6e6e6" stroke-width="2"/>
      <line id="Ligne_40-7" data-name="Ligne 40" x2="57.669" transform="translate(1644.5 407.456)" fill="none" stroke="#e6e6e6" stroke-width="2"/>
      <line id="Ligne_41-7" data-name="Ligne 41" x2="44.46" transform="translate(1644.5 412)" fill="none" stroke="#e6e6e6" stroke-width="2"/>
    </g>
    <g id="Groupe_66" data-name="Groupe 66" transform="translate(148 72)">
      <g id="Groupe_60-8" data-name="Groupe 60" transform="translate(1644.661 358.175)">
        <path id="Tracé_45-8" data-name="Tracé 45" d="M0,0H57.369V30.011H0Z" transform="translate(0 0)" fill="#e7eaf0"/>
        <path id="Tracé_46-8" data-name="Tracé 46" d="M2887,379.052s7.46-16.3,14.375-8.377,5.845,8.82,9.475,8.377,4.587-17.062,13.285-19.2,20.235,19.2,20.235,19.2v5.583l-57.37.013Z" transform="translate(-2887 -354.637)" fill="#fbfcff"/>
        <ellipse id="Ellipse_2-8" data-name="Ellipse 2" cx="1.903" cy="2.039" rx="1.903" ry="2.039" transform="translate(18.489 7.811)" fill="#fbfcff"/>
      </g>
      <line id="Ligne_37-8" data-name="Ligne 37" x2="44.46" transform="translate(1644.5 393.18)" fill="none" stroke="#e6e6e6" stroke-width="2"/>
      <line id="Ligne_38-8" data-name="Ligne 38" x2="57.669" transform="translate(1644.5 397.724)" fill="none" stroke="#e6e6e6" stroke-width="2"/>
      <line id="Ligne_39-8" data-name="Ligne 39" x2="48.97" transform="translate(1644.5 402.59)" fill="none" stroke="#e6e6e6" stroke-width="2"/>
      <line id="Ligne_40-8" data-name="Ligne 40" x2="57.669" transform="translate(1644.5 407.456)" fill="none" stroke="#e6e6e6" stroke-width="2"/>
      <line id="Ligne_41-8" data-name="Ligne 41" x2="44.46" transform="translate(1644.5 412)" fill="none" stroke="#e6e6e6" stroke-width="2"/>
    </g>
    <g id="Groupe_67" data-name="Groupe 67" transform="translate(148 142)">
      <g id="Groupe_60-9" data-name="Groupe 60" transform="translate(1644.661 358.175)">
        <path id="Tracé_45-9" data-name="Tracé 45" d="M0,0H57.369V30.011H0Z" transform="translate(0 0)" fill="#e7eaf0"/>
        <path id="Tracé_46-9" data-name="Tracé 46" d="M2887,379.052s7.46-16.3,14.375-8.377,5.845,8.82,9.475,8.377,4.587-17.062,13.285-19.2,20.235,19.2,20.235,19.2v5.583l-57.37.013Z" transform="translate(-2887 -354.637)" fill="#fbfcff"/>
        <ellipse id="Ellipse_2-9" data-name="Ellipse 2" cx="1.903" cy="2.039" rx="1.903" ry="2.039" transform="translate(18.489 7.811)" fill="#fbfcff"/>
      </g>
      <line id="Ligne_37-9" data-name="Ligne 37" x2="44.46" transform="translate(1644.5 393.18)" fill="none" stroke="#e6e6e6" stroke-width="2"/>
      <line id="Ligne_38-9" data-name="Ligne 38" x2="57.669" transform="translate(1644.5 397.724)" fill="none" stroke="#e6e6e6" stroke-width="2"/>
      <line id="Ligne_39-9" data-name="Ligne 39" x2="48.97" transform="translate(1644.5 402.59)" fill="none" stroke="#e6e6e6" stroke-width="2"/>
      <line id="Ligne_40-9" data-name="Ligne 40" x2="57.669" transform="translate(1644.5 407.456)" fill="none" stroke="#e6e6e6" stroke-width="2"/>
      <line id="Ligne_41-9" data-name="Ligne 41" x2="44.46" transform="translate(1644.5 412)" fill="none" stroke="#e6e6e6" stroke-width="2"/>
    </g>
    <text id="Archive_Title" data-name="Archive Title" transform="translate(1645 344)" fill="#c8c9cf" font-size="11" font-family="Roboto-Regular, Roboto"><tspan x="0" y="0">Archive Title</tspan></text>
  </g>
</svg>
