<svg xmlns="http://www.w3.org/2000/svg" xmlns:xlink="http://www.w3.org/1999/xlink" width="245" height="237" viewBox="0 0 245 237">
  <defs>
    <clipPath id="clip-path">
      <rect id="Rectangle_79" data-name="Rectangle 79" width="5.6" height="5.779" fill="#f4f4f9"/>
    </clipPath>
  </defs>
  <g id="Groupe_120" data-name="Groupe 120" transform="translate(-1002 -675)">
    <rect id="Rectangle_72" data-name="Rectangle 72" width="245" height="237" transform="translate(1002 675)" fill="#feffff"/>
    <g id="Groupe_116" data-name="Groupe 116">
      <g id="Groupe_110" data-name="Groupe 110">
        <g id="Groupe_92" data-name="Groupe 92" transform="translate(607.883 -23)">
          <line id="Ligne_50" data-name="Ligne 50" x2="33.117" transform="translate(415.5 718.5)" fill="none" stroke="#e7eaf0" stroke-linecap="round" stroke-width="11"/>
          <circle id="Ellipse_6" data-name="Ellipse 6" cx="5.5" cy="5.5" r="5.5" transform="translate(443.117 713)" fill="#d7d7d7"/>
          <g id="Groupe_91" data-name="Groupe 91" transform="translate(446.117 715.693)" clip-path="url(#clip-path)">
            <path id="Tracé_52" data-name="Tracé 52" d="M3.65,3.1,5.458,4.964c.433.44-.22,1.114-.646.667L3,3.766A1.925,1.925,0,0,1,.577,3.475a2.084,2.084,0,0,1,0-2.88,1.932,1.932,0,0,1,2.791,0A2.083,2.083,0,0,1,3.65,3.1m-1.959.007a.135.135,0,0,1-.062.262,1.217,1.217,0,0,1-.323-.142,1.4,1.4,0,0,1-.488-1.88c.082-.156.309-.021.227.135a1.122,1.122,0,0,0,.392,1.511,1.167,1.167,0,0,0,.254.113m.247.078a.122.122,0,0,1,.186,0,.145.145,0,0,1,0,.192.134.134,0,0,1-.186,0,.132.132,0,0,1,0-.192M.845.871A1.567,1.567,0,0,1,3.1.871,1.69,1.69,0,0,1,3.1,3.2a1.567,1.567,0,0,1-2.255,0,1.69,1.69,0,0,1,0-2.327" transform="translate(0 0.001)" fill="#f4f4f9" fill-rule="evenodd"/>
          </g>
        </g>
        <line id="Ligne_51" data-name="Ligne 51" x2="45" transform="translate(1018 711.5)" fill="none" stroke="#d7d7d7" stroke-width="1"/>
        <line id="Ligne_52" data-name="Ligne 52" x2="37.5" transform="translate(1018 719.5)" fill="none" stroke="#d7d7d7" stroke-width="1"/>
        <line id="Ligne_53" data-name="Ligne 53" x2="39.5" transform="translate(1018 727.5)" fill="none" stroke="#d7d7d7" stroke-width="1"/>
        <line id="Ligne_54" data-name="Ligne 54" x2="45" transform="translate(1018 735.5)" fill="none" stroke="#d7d7d7" stroke-width="1"/>
        <line id="Ligne_55" data-name="Ligne 55" x2="34.5" transform="translate(1018 743.5)" fill="none" stroke="#d7d7d7" stroke-width="1"/>
        <line id="Ligne_56" data-name="Ligne 56" x2="40.5" transform="translate(1018 751.5)" fill="none" stroke="#d7d7d7" stroke-width="1"/>
        <line id="Ligne_57" data-name="Ligne 57" x2="41.5" transform="translate(1018 759.5)" fill="none" stroke="#d7d7d7" stroke-width="1"/>
        <line id="Ligne_58" data-name="Ligne 58" x2="42.5" transform="translate(1018 767.5)" fill="none" stroke="#d7d7d7" stroke-width="1"/>
        <path id="Tracé_53" data-name="Tracé 53" d="M0,0H45" transform="translate(1018 775.5)" fill="none" stroke="#d7d7d7" stroke-width="1"/>
        <path id="Tracé_54" data-name="Tracé 54" d="M0,0H39.5" transform="translate(1018 783.5)" fill="none" stroke="#d7d7d7" stroke-width="1"/>
        <text id="Futured_Products_" data-name="Futured Products " transform="translate(1079 700)" fill="#27293f" font-size="12" font-family="Roboto-Regular, Roboto" opacity="0.246"><tspan x="0" y="0">Futured Products </tspan></text>
        <g id="Groupe_96" data-name="Groupe 96">
          <g id="Groupe_93" data-name="Groupe 93" transform="translate(-8 0.779)">
            <g id="Groupe_90" data-name="Groupe 90" transform="translate(1088 710.892)">
              <path id="Tracé_45" data-name="Tracé 45" d="M0,0H44.5V28.9H0Z" transform="translate(0)" fill="#e7eaf0"/>
              <path id="Tracé_46" data-name="Tracé 46" d="M2887,379.071s5.787-16.314,11.15-8.385,4.534,8.829,7.35,8.385,3.558-17.078,10.3-19.222,15.7,19.222,15.7,19.222v5.589l-44.5.013Z" transform="translate(-2887 -355.772)" fill="#fbfcff"/>
              <circle id="Ellipse_2" data-name="Ellipse 2" cx="1" cy="1" r="1" transform="translate(14 8.329)" fill="#fbfcff"/>
            </g>
            <path id="Tracé_55" data-name="Tracé 55" d="M0,0H42.564" transform="translate(1088 745.08)" fill="none" stroke="#d7d7d7" stroke-width="2"/>
            <path id="Tracé_56" data-name="Tracé 56" d="M0,0H38.284" transform="translate(1088 750.721)" fill="none" stroke="#d7d7d7" stroke-width="2"/>
          </g>
          <g id="Groupe_94" data-name="Groupe 94" transform="translate(44.25 0.779)">
            <g id="Groupe_90-2" data-name="Groupe 90" transform="translate(1088 710.892)">
              <path id="Tracé_45-2" data-name="Tracé 45" d="M0,0H44.5V28.9H0Z" transform="translate(0)" fill="#e7eaf0"/>
              <path id="Tracé_46-2" data-name="Tracé 46" d="M2887,379.071s5.787-16.314,11.15-8.385,4.534,8.829,7.35,8.385,3.558-17.078,10.3-19.222,15.7,19.222,15.7,19.222v5.589l-44.5.013Z" transform="translate(-2887 -355.772)" fill="#fbfcff"/>
              <circle id="Ellipse_2-2" data-name="Ellipse 2" cx="1" cy="1" r="1" transform="translate(14 8.329)" fill="#fbfcff"/>
            </g>
            <path id="Tracé_55-2" data-name="Tracé 55" d="M0,0H42.564" transform="translate(1088 745.08)" fill="none" stroke="#d7d7d7" stroke-width="2"/>
            <path id="Tracé_56-2" data-name="Tracé 56" d="M0,0H38.284" transform="translate(1088 750.721)" fill="none" stroke="#d7d7d7" stroke-width="2"/>
          </g>
          <g id="Groupe_95" data-name="Groupe 95" transform="translate(96.5 0.779)">
            <g id="Groupe_90-3" data-name="Groupe 90" transform="translate(1088 710.892)">
              <path id="Tracé_45-3" data-name="Tracé 45" d="M0,0H44.5V28.9H0Z" transform="translate(0)" fill="#e7eaf0"/>
              <path id="Tracé_46-3" data-name="Tracé 46" d="M2887,379.071s5.787-16.314,11.15-8.385,4.534,8.829,7.35,8.385,3.558-17.078,10.3-19.222,15.7,19.222,15.7,19.222v5.589l-44.5.013Z" transform="translate(-2887 -355.772)" fill="#fbfcff"/>
              <circle id="Ellipse_2-3" data-name="Ellipse 2" cx="1.16" cy="1.16" r="1.16" transform="translate(13.922 8.246)" fill="#fbfcff"/>
            </g>
            <path id="Tracé_55-3" data-name="Tracé 55" d="M0,0H42.564" transform="translate(1088 745.08)" fill="none" stroke="#d7d7d7" stroke-width="2"/>
            <path id="Tracé_56-3" data-name="Tracé 56" d="M0,0H38.284" transform="translate(1088 750.721)" fill="none" stroke="#d7d7d7" stroke-width="2"/>
          </g>
        </g>
        <g id="Groupe_97" data-name="Groupe 97" transform="translate(0 52)">
          <g id="Groupe_93-2" data-name="Groupe 93" transform="translate(-8 0.779)">
            <g id="Groupe_90-4" data-name="Groupe 90" transform="translate(1088 710.892)">
              <path id="Tracé_45-4" data-name="Tracé 45" d="M0,0H44.5V28.9H0Z" transform="translate(0)" fill="#e7eaf0"/>
              <path id="Tracé_46-4" data-name="Tracé 46" d="M2887,379.071s5.787-16.314,11.15-8.385,4.534,8.829,7.35,8.385,3.558-17.078,10.3-19.222,15.7,19.222,15.7,19.222v5.589l-44.5.013Z" transform="translate(-2887 -355.772)" fill="#fbfcff"/>
              <circle id="Ellipse_2-4" data-name="Ellipse 2" cx="1" cy="1" r="1" transform="translate(14 8.329)" fill="#fbfcff"/>
            </g>
            <path id="Tracé_55-4" data-name="Tracé 55" d="M0,0H42.564" transform="translate(1088 745.08)" fill="none" stroke="#d7d7d7" stroke-width="2"/>
            <path id="Tracé_56-4" data-name="Tracé 56" d="M0,0H38.284" transform="translate(1088 750.721)" fill="none" stroke="#d7d7d7" stroke-width="2"/>
          </g>
          <g id="Groupe_94-2" data-name="Groupe 94" transform="translate(44.25 0.779)">
            <g id="Groupe_90-5" data-name="Groupe 90" transform="translate(1088 710.892)">
              <path id="Tracé_45-5" data-name="Tracé 45" d="M0,0H44.5V28.9H0Z" transform="translate(0)" fill="#e7eaf0"/>
              <path id="Tracé_46-5" data-name="Tracé 46" d="M2887,379.071s5.787-16.314,11.15-8.385,4.534,8.829,7.35,8.385,3.558-17.078,10.3-19.222,15.7,19.222,15.7,19.222v5.589l-44.5.013Z" transform="translate(-2887 -355.772)" fill="#fbfcff"/>
              <circle id="Ellipse_2-5" data-name="Ellipse 2" cx="1" cy="1" r="1" transform="translate(14 8.329)" fill="#fbfcff"/>
            </g>
            <path id="Tracé_55-5" data-name="Tracé 55" d="M0,0H42.564" transform="translate(1088 745.08)" fill="none" stroke="#d7d7d7" stroke-width="2"/>
            <path id="Tracé_56-5" data-name="Tracé 56" d="M0,0H38.284" transform="translate(1088 750.721)" fill="none" stroke="#d7d7d7" stroke-width="2"/>
          </g>
          <g id="Groupe_95-2" data-name="Groupe 95" transform="translate(96.5 0.779)">
            <g id="Groupe_90-6" data-name="Groupe 90" transform="translate(1088 710.892)">
              <path id="Tracé_45-6" data-name="Tracé 45" d="M0,0H44.5V28.9H0Z" transform="translate(0)" fill="#e7eaf0"/>
              <path id="Tracé_46-6" data-name="Tracé 46" d="M2887,379.071s5.787-16.314,11.15-8.385,4.534,8.829,7.35,8.385,3.558-17.078,10.3-19.222,15.7,19.222,15.7,19.222v5.589l-44.5.013Z" transform="translate(-2887 -355.772)" fill="#fbfcff"/>
              <circle id="Ellipse_2-6" data-name="Ellipse 2" cx="1.16" cy="1.16" r="1.16" transform="translate(13.922 8.246)" fill="#fbfcff"/>
            </g>
            <path id="Tracé_55-6" data-name="Tracé 55" d="M0,0H42.564" transform="translate(1088 745.08)" fill="none" stroke="#d7d7d7" stroke-width="2"/>
            <path id="Tracé_56-6" data-name="Tracé 56" d="M0,0H38.284" transform="translate(1088 750.721)" fill="none" stroke="#d7d7d7" stroke-width="2"/>
          </g>
        </g>
        <g id="Groupe_98" data-name="Groupe 98" transform="translate(0 104)">
          <g id="Groupe_93-3" data-name="Groupe 93" transform="translate(-8 0.779)">
            <g id="Groupe_90-7" data-name="Groupe 90" transform="translate(1088 710.892)">
              <path id="Tracé_45-7" data-name="Tracé 45" d="M0,0H44.5V28.9H0Z" transform="translate(0)" fill="#e7eaf0"/>
              <path id="Tracé_46-7" data-name="Tracé 46" d="M2887,379.071s5.787-16.314,11.15-8.385,4.534,8.829,7.35,8.385,3.558-17.078,10.3-19.222,15.7,19.222,15.7,19.222v5.589l-44.5.013Z" transform="translate(-2887 -355.772)" fill="#fbfcff"/>
              <circle id="Ellipse_2-7" data-name="Ellipse 2" cx="1" cy="1" r="1" transform="translate(14 8.329)" fill="#fbfcff"/>
            </g>
            <path id="Tracé_55-7" data-name="Tracé 55" d="M0,0H42.564" transform="translate(1088 745.08)" fill="none" stroke="#d7d7d7" stroke-width="2"/>
            <path id="Tracé_56-7" data-name="Tracé 56" d="M0,0H38.284" transform="translate(1088 750.721)" fill="none" stroke="#d7d7d7" stroke-width="2"/>
          </g>
          <g id="Groupe_94-3" data-name="Groupe 94" transform="translate(44.25 0.779)">
            <g id="Groupe_90-8" data-name="Groupe 90" transform="translate(1088 710.892)">
              <path id="Tracé_45-8" data-name="Tracé 45" d="M0,0H44.5V28.9H0Z" transform="translate(0)" fill="#e7eaf0"/>
              <path id="Tracé_46-8" data-name="Tracé 46" d="M2887,379.071s5.787-16.314,11.15-8.385,4.534,8.829,7.35,8.385,3.558-17.078,10.3-19.222,15.7,19.222,15.7,19.222v5.589l-44.5.013Z" transform="translate(-2887 -355.772)" fill="#fbfcff"/>
              <circle id="Ellipse_2-8" data-name="Ellipse 2" cx="1" cy="1" r="1" transform="translate(14 8.329)" fill="#fbfcff"/>
            </g>
            <path id="Tracé_55-8" data-name="Tracé 55" d="M0,0H42.564" transform="translate(1088 745.08)" fill="none" stroke="#d7d7d7" stroke-width="2"/>
            <path id="Tracé_56-8" data-name="Tracé 56" d="M0,0H38.284" transform="translate(1088 750.721)" fill="none" stroke="#d7d7d7" stroke-width="2"/>
          </g>
          <g id="Groupe_95-3" data-name="Groupe 95" transform="translate(96.5 0.779)">
            <g id="Groupe_90-9" data-name="Groupe 90" transform="translate(1088 710.892)">
              <path id="Tracé_45-9" data-name="Tracé 45" d="M0,0H44.5V28.9H0Z" transform="translate(0)" fill="#e7eaf0"/>
              <path id="Tracé_46-9" data-name="Tracé 46" d="M2887,379.071s5.787-16.314,11.15-8.385,4.534,8.829,7.35,8.385,3.558-17.078,10.3-19.222,15.7,19.222,15.7,19.222v5.589l-44.5.013Z" transform="translate(-2887 -355.772)" fill="#fbfcff"/>
              <circle id="Ellipse_2-9" data-name="Ellipse 2" cx="1.16" cy="1.16" r="1.16" transform="translate(13.922 8.246)" fill="#fbfcff"/>
            </g>
            <path id="Tracé_55-9" data-name="Tracé 55" d="M0,0H42.564" transform="translate(1088 745.08)" fill="none" stroke="#d7d7d7" stroke-width="2"/>
            <path id="Tracé_56-9" data-name="Tracé 56" d="M0,0H38.284" transform="translate(1088 750.721)" fill="none" stroke="#d7d7d7" stroke-width="2"/>
          </g>
        </g>
        <g id="Groupe_99" data-name="Groupe 99" transform="translate(0 156)">
          <g id="Groupe_93-4" data-name="Groupe 93" transform="translate(-8 0.779)">
            <g id="Groupe_90-10" data-name="Groupe 90" transform="translate(1088 710.892)">
              <path id="Tracé_45-10" data-name="Tracé 45" d="M0,0H44.5V28.9H0Z" transform="translate(0)" fill="#e7eaf0"/>
              <path id="Tracé_46-10" data-name="Tracé 46" d="M2887,379.071s5.787-16.314,11.15-8.385,4.534,8.829,7.35,8.385,3.558-17.078,10.3-19.222,15.7,19.222,15.7,19.222v5.589l-44.5.013Z" transform="translate(-2887 -355.772)" fill="#fbfcff"/>
              <circle id="Ellipse_2-10" data-name="Ellipse 2" cx="1" cy="1" r="1" transform="translate(14 8.329)" fill="#fbfcff"/>
            </g>
            <path id="Tracé_55-10" data-name="Tracé 55" d="M0,0H42.564" transform="translate(1088 745.08)" fill="none" stroke="#d7d7d7" stroke-width="2"/>
            <path id="Tracé_56-10" data-name="Tracé 56" d="M0,0H38.284" transform="translate(1088 750.721)" fill="none" stroke="#d7d7d7" stroke-width="2"/>
          </g>
          <g id="Groupe_94-4" data-name="Groupe 94" transform="translate(44.25 0.779)">
            <g id="Groupe_90-11" data-name="Groupe 90" transform="translate(1088 710.892)">
              <path id="Tracé_45-11" data-name="Tracé 45" d="M0,0H44.5V28.9H0Z" transform="translate(0)" fill="#e7eaf0"/>
              <path id="Tracé_46-11" data-name="Tracé 46" d="M2887,379.071s5.787-16.314,11.15-8.385,4.534,8.829,7.35,8.385,3.558-17.078,10.3-19.222,15.7,19.222,15.7,19.222v5.589l-44.5.013Z" transform="translate(-2887 -355.772)" fill="#fbfcff"/>
              <circle id="Ellipse_2-11" data-name="Ellipse 2" cx="1" cy="1" r="1" transform="translate(14 8.329)" fill="#fbfcff"/>
            </g>
            <path id="Tracé_55-11" data-name="Tracé 55" d="M0,0H42.564" transform="translate(1088 745.08)" fill="none" stroke="#d7d7d7" stroke-width="2"/>
            <path id="Tracé_56-11" data-name="Tracé 56" d="M0,0H38.284" transform="translate(1088 750.721)" fill="none" stroke="#d7d7d7" stroke-width="2"/>
          </g>
          <g id="Groupe_95-4" data-name="Groupe 95" transform="translate(96.5 0.779)">
            <g id="Groupe_90-12" data-name="Groupe 90" transform="translate(1088 710.892)">
              <path id="Tracé_45-12" data-name="Tracé 45" d="M0,0H44.5V28.9H0Z" transform="translate(0)" fill="#e7eaf0"/>
              <path id="Tracé_46-12" data-name="Tracé 46" d="M2887,379.071s5.787-16.314,11.15-8.385,4.534,8.829,7.35,8.385,3.558-17.078,10.3-19.222,15.7,19.222,15.7,19.222v5.589l-44.5.013Z" transform="translate(-2887 -355.772)" fill="#fbfcff"/>
              <circle id="Ellipse_2-12" data-name="Ellipse 2" cx="1.16" cy="1.16" r="1.16" transform="translate(13.922 8.246)" fill="#fbfcff"/>
            </g>
            <path id="Tracé_55-12" data-name="Tracé 55" d="M0,0H42.564" transform="translate(1088 745.08)" fill="none" stroke="#d7d7d7" stroke-width="2"/>
            <path id="Tracé_56-12" data-name="Tracé 56" d="M0,0H38.284" transform="translate(1088 750.721)" fill="none" stroke="#d7d7d7" stroke-width="2"/>
          </g>
        </g>
      </g>
    </g>
  </g>
</svg>
