<svg xmlns="http://www.w3.org/2000/svg" xmlns:xlink="http://www.w3.org/1999/xlink" width="245" height="237" viewBox="0 0 245 237">
  <defs>
    <clipPath id="clip-path">
      <rect id="Rectangle_78" data-name="Rectangle 78" width="5.6" height="5.779" fill="#f4f4f9"/>
    </clipPath>
  </defs>
  <g id="Groupe_122" data-name="Groupe 122" transform="translate(-377 -675)">
    <rect id="Rectangle_71" data-name="Rectangle 71" width="245" height="237" transform="translate(377 675)" fill="#feffff"/>
    <g id="Groupe_70" data-name="Groupe 70" transform="translate(-619 321.039)">
      <path id="Tracé_45" data-name="Tracé 45" d="M0,0H45.225V27.878H0Z" transform="translate(1018 420.083)" fill="#e7eaf0"/>
      <path id="Tracé_46" data-name="Tracé 46" d="M2887,377.2s5.881-14.742,11.331-7.577,4.608,7.978,7.469,7.577,3.616-15.432,10.472-17.369,15.952,17.369,15.952,17.369v5.05l-45.225.011Z" transform="translate(-1869 65.696)" fill="#fbfcff"/>
      <circle id="Ellipse_2" data-name="Ellipse 2" cx="2.5" cy="2.5" r="2.5" transform="translate(1032 426.961)" fill="#fbfcff"/>
    </g>
    <rect id="Rectangle_77" data-name="Rectangle 77" width="245" height="30" transform="translate(377 675)" fill="#f4f5f9"/>
    <g id="Groupe_71" data-name="Groupe 71" transform="translate(-439.5 212)" opacity="0.604">
      <line id="Ligne_27" data-name="Ligne 27" x2="81.5" transform="translate(895.5 531.5)" fill="none" stroke="#d7d7d7" stroke-linecap="round" stroke-width="4"/>
      <path id="Tracé_49" data-name="Tracé 49" d="M0,0H145.5" transform="translate(893.5 539.5)" fill="none" stroke="#d7d7d7" stroke-width="2"/>
      <line id="Ligne_29" data-name="Ligne 29" x2="122.5" transform="translate(893.5 547.5)" fill="none" stroke="#d7d7d7" stroke-width="2"/>
      <line id="Ligne_30" data-name="Ligne 30" x2="145.5" transform="translate(893.5 555.5)" fill="none" stroke="#d7d7d7" stroke-width="2"/>
    </g>
    <g id="Groupe_75" data-name="Groupe 75" transform="translate(-619 363.039)">
      <path id="Tracé_45-2" data-name="Tracé 45" d="M0,0H45.225V27.878H0Z" transform="translate(1018 420.083)" fill="#e7eaf0"/>
      <path id="Tracé_46-2" data-name="Tracé 46" d="M2887,377.2s5.881-14.742,11.331-7.577,4.608,7.978,7.469,7.577,3.616-15.432,10.472-17.369,15.952,17.369,15.952,17.369v5.05l-45.225.011Z" transform="translate(-1869 65.696)" fill="#fbfcff"/>
      <circle id="Ellipse_2-2" data-name="Ellipse 2" cx="2.5" cy="2.5" r="2.5" transform="translate(1032 426.961)" fill="#fbfcff"/>
    </g>
    <g id="Groupe_76" data-name="Groupe 76" transform="translate(-439.5 254)" opacity="0.604">
      <line id="Ligne_27-2" data-name="Ligne 27" x2="81.5" transform="translate(895.5 531.5)" fill="none" stroke="#d7d7d7" stroke-linecap="round" stroke-width="4"/>
      <path id="Tracé_49-2" data-name="Tracé 49" d="M0,0H145.5" transform="translate(893.5 539.5)" fill="none" stroke="#d7d7d7" stroke-width="2"/>
      <line id="Ligne_29-2" data-name="Ligne 29" x2="122.5" transform="translate(893.5 547.5)" fill="none" stroke="#d7d7d7" stroke-width="2"/>
      <line id="Ligne_30-2" data-name="Ligne 30" x2="145.5" transform="translate(893.5 555.5)" fill="none" stroke="#d7d7d7" stroke-width="2"/>
    </g>
    <g id="Groupe_77" data-name="Groupe 77" transform="translate(-619 405.039)">
      <path id="Tracé_45-3" data-name="Tracé 45" d="M0,0H45.225V27.878H0Z" transform="translate(1018 420.083)" fill="#e7eaf0"/>
      <path id="Tracé_46-3" data-name="Tracé 46" d="M2887,377.2s5.881-14.742,11.331-7.577,4.608,7.978,7.469,7.577,3.616-15.432,10.472-17.369,15.952,17.369,15.952,17.369v5.05l-45.225.011Z" transform="translate(-1869 65.696)" fill="#fbfcff"/>
      <circle id="Ellipse_2-3" data-name="Ellipse 2" cx="2.5" cy="2.5" r="2.5" transform="translate(1032 426.961)" fill="#fbfcff"/>
    </g>
    <g id="Groupe_78" data-name="Groupe 78" transform="translate(-439.5 296)" opacity="0.604">
      <line id="Ligne_27-3" data-name="Ligne 27" x2="81.5" transform="translate(895.5 531.5)" fill="none" stroke="#d7d7d7" stroke-linecap="round" stroke-width="4"/>
      <path id="Tracé_49-3" data-name="Tracé 49" d="M0,0H145.5" transform="translate(893.5 539.5)" fill="none" stroke="#d7d7d7" stroke-width="2"/>
      <line id="Ligne_29-3" data-name="Ligne 29" x2="122.5" transform="translate(893.5 547.5)" fill="none" stroke="#d7d7d7" stroke-width="2"/>
      <line id="Ligne_30-3" data-name="Ligne 30" x2="145.5" transform="translate(893.5 555.5)" fill="none" stroke="#d7d7d7" stroke-width="2"/>
    </g>
    <g id="Groupe_79" data-name="Groupe 79" transform="translate(-619 447.039)">
      <path id="Tracé_45-4" data-name="Tracé 45" d="M0,0H45.225V27.878H0Z" transform="translate(1018 420.083)" fill="#e7eaf0"/>
      <path id="Tracé_46-4" data-name="Tracé 46" d="M2887,377.2s5.881-14.742,11.331-7.577,4.608,7.978,7.469,7.577,3.616-15.432,10.472-17.369,15.952,17.369,15.952,17.369v5.05l-45.225.011Z" transform="translate(-1869 65.696)" fill="#fbfcff"/>
      <circle id="Ellipse_2-4" data-name="Ellipse 2" cx="2.5" cy="2.5" r="2.5" transform="translate(1032 426.961)" fill="#fbfcff"/>
    </g>
    <g id="Groupe_80" data-name="Groupe 80" transform="translate(-439.5 338)" opacity="0.604">
      <line id="Ligne_27-4" data-name="Ligne 27" x2="81.5" transform="translate(895.5 531.5)" fill="none" stroke="#d7d7d7" stroke-linecap="round" stroke-width="4"/>
      <path id="Tracé_49-4" data-name="Tracé 49" d="M0,0H145.5" transform="translate(893.5 539.5)" fill="none" stroke="#d7d7d7" stroke-width="2"/>
      <line id="Ligne_29-4" data-name="Ligne 29" x2="122.5" transform="translate(893.5 547.5)" fill="none" stroke="#d7d7d7" stroke-width="2"/>
      <line id="Ligne_30-4" data-name="Ligne 30" x2="145.5" transform="translate(893.5 555.5)" fill="none" stroke="#d7d7d7" stroke-width="2"/>
    </g>
    <line id="Ligne_42" data-name="Ligne 42" x2="171" transform="translate(415.5 690.5)" fill="none" stroke="#feffff" stroke-linecap="round" stroke-width="11"/>
    <circle id="Ellipse_5" data-name="Ellipse 5" cx="5.5" cy="5.5" r="5.5" transform="translate(581 685)" fill="#d7d7d7"/>
    <g id="Groupe_82" data-name="Groupe 82" transform="translate(584 687.693)" clip-path="url(#clip-path)">
      <path id="Tracé_50" data-name="Tracé 50" d="M3.65,3.1,5.458,4.964c.433.44-.22,1.114-.646.667L3,3.766A1.925,1.925,0,0,1,.577,3.475a2.084,2.084,0,0,1,0-2.88,1.932,1.932,0,0,1,2.791,0A2.083,2.083,0,0,1,3.65,3.1m-1.959.007a.135.135,0,0,1-.062.262,1.217,1.217,0,0,1-.323-.142,1.4,1.4,0,0,1-.488-1.88c.082-.156.309-.021.227.135a1.122,1.122,0,0,0,.392,1.511,1.167,1.167,0,0,0,.254.113m.247.078a.122.122,0,0,1,.186,0,.145.145,0,0,1,0,.192.134.134,0,0,1-.186,0,.132.132,0,0,1,0-.192M.845.871A1.567,1.567,0,0,1,3.1.871,1.69,1.69,0,0,1,3.1,3.2a1.567,1.567,0,0,1-2.255,0,1.69,1.69,0,0,1,0-2.327" transform="translate(0 0.001)" fill="#f4f4f9" fill-rule="evenodd"/>
    </g>
    <text id="_12_Maching_Results" data-name="12 Maching Results" transform="translate(399 727)" fill="#27293f" font-size="11" font-family="Roboto-Regular, Roboto" opacity="0.25"><tspan x="0" y="0">12 Maching Results</tspan></text>
    <text id="Search" transform="translate(417 693)" fill="#c8c9cf" font-size="8" font-family="Roboto-Regular, Roboto"><tspan x="0" y="0">Search</tspan></text>
  </g>
</svg>
