<svg xmlns="http://www.w3.org/2000/svg" width="245.5" height="237" viewBox="0 0 245.5 237">
  <g id="Groupe_121" data-name="Groupe 121" transform="translate(-689 -675)">
    <rect id="Rectangle_69" data-name="Rectangle 69" width="245" height="237" transform="translate(689 675)" fill="#feffff"/>
    <g id="Groupe_83" data-name="Groupe 83" transform="translate(-309 278.917)">
      <path id="Tracé_45" data-name="Tracé 45" d="M0,0H127.5V82.8H0Z" transform="translate(1018 420.083)" fill="#e7eaf0"/>
      <path id="Tracé_46" data-name="Tracé 46" d="M2887,415.2s16.58-46.742,31.946-24.025,12.991,25.3,21.058,24.025,10.2-48.931,29.524-55.074S3014.5,415.2,3014.5,415.2v16.012l-127.5.036Z" transform="translate(-1869 71.633)" fill="#fbfcff"/>
      <circle id="Ellipse_2" data-name="Ellipse 2" cx="4.5" cy="4.5" r="4.5" transform="translate(1059 442.083)" fill="#fbfcff"/>
    </g>
    <g id="Groupe_84" data-name="Groupe 84" transform="translate(-309 366.809)">
      <path id="Tracé_45-2" data-name="Tracé 45" d="M0,0H38.359V24.912H0Z" transform="translate(1018 420.083)" fill="#e7eaf0"/>
      <path id="Tracé_46-2" data-name="Tracé 46" d="M2887,376.4s4.988-14.062,9.611-7.228,3.908,7.61,6.336,7.228,3.067-14.721,8.882-16.569,13.53,16.569,13.53,16.569v4.817l-38.358.011Z" transform="translate(-1869 63.769)" fill="#fbfcff"/>
      <circle id="Ellipse_2-2" data-name="Ellipse 2" cx="1" cy="1" r="1" transform="translate(1030 427.191)" fill="#fbfcff"/>
    </g>
    <g id="Groupe_85" data-name="Groupe 85" transform="translate(-264.5 366.809)">
      <path id="Tracé_45-3" data-name="Tracé 45" d="M0,0H38.359V24.912H0Z" transform="translate(1018 420.083)" fill="#e7eaf0"/>
      <path id="Tracé_46-3" data-name="Tracé 46" d="M2887,376.4s4.988-14.062,9.611-7.228,3.908,7.61,6.336,7.228,3.067-14.721,8.882-16.569,13.53,16.569,13.53,16.569v4.817l-38.358.011Z" transform="translate(-1869 63.769)" fill="#fbfcff"/>
      <circle id="Ellipse_2-3" data-name="Ellipse 2" cx="1" cy="1" r="1" transform="translate(1030 427.191)" fill="#fbfcff"/>
    </g>
    <g id="Groupe_86" data-name="Groupe 86" transform="translate(-220 366.809)">
      <path id="Tracé_45-4" data-name="Tracé 45" d="M0,0H38.359V24.912H0Z" transform="translate(1018 420.083)" fill="#e7eaf0"/>
      <path id="Tracé_46-4" data-name="Tracé 46" d="M2887,376.4s4.988-14.062,9.611-7.228,3.908,7.61,6.336,7.228,3.067-14.721,8.882-16.569,13.53,16.569,13.53,16.569v4.817l-38.358.011Z" transform="translate(-1869 63.769)" fill="#fbfcff"/>
      <circle id="Ellipse_2-4" data-name="Ellipse 2" cx="1" cy="1" r="1" transform="translate(1030 427.191)" fill="#fbfcff"/>
    </g>
    <line id="Ligne_43" data-name="Ligne 43" x2="26" transform="translate(857.5 799.5)" fill="none" stroke="#e7eaf0" stroke-linecap="round" stroke-width="11"/>
    <line id="Ligne_44" data-name="Ligne 44" x2="64" transform="translate(850.5 745.5)" fill="none" stroke="#d7d7d7" stroke-width="2"/>
    <line id="Ligne_45" data-name="Ligne 45" x2="54" transform="translate(850.5 753.5)" fill="none" stroke="#d7d7d7" stroke-width="2"/>
    <line id="Ligne_46" data-name="Ligne 46" x2="59" transform="translate(850.5 761.5)" fill="none" stroke="#d7d7d7" stroke-width="2"/>
    <line id="Ligne_47" data-name="Ligne 47" x2="52" transform="translate(850.5 769.5)" fill="none" stroke="#d7d7d7" stroke-width="2"/>
    <line id="Ligne_48" data-name="Ligne 48" x2="62" transform="translate(850.5 777.5)" fill="none" stroke="#d7d7d7" stroke-width="2"/>
    <line id="Ligne_49" data-name="Ligne 49" x2="245" transform="translate(689.5 847.5)" fill="none" stroke="#fbfcff" stroke-width="2"/>
    <g id="Groupe_87" data-name="Groupe 87" transform="translate(-289.821 446.781)">
      <path id="Tracé_45-5" data-name="Tracé 45" d="M0,0H49.179V31.939H0Z" transform="translate(1018 420.083)" fill="#e7eaf0"/>
      <path id="Tracé_46-5" data-name="Tracé 46" d="M2887,381.108s6.4-18.029,12.322-9.267,5.01,9.757,8.123,9.267,3.932-18.874,11.388-21.243,17.346,21.243,17.346,21.243v6.176L2887,387.3Z" transform="translate(-1869 64.724)" fill="#fbfcff"/>
      <ellipse id="Ellipse_2-5" data-name="Ellipse 2" cx="1" cy="1.5" rx="1" ry="1.5" transform="translate(1033.821 429.219)" fill="#fbfcff"/>
    </g>
    <g id="Groupe_88" data-name="Groupe 88" transform="translate(-231.32 446.781)">
      <path id="Tracé_45-6" data-name="Tracé 45" d="M0,0H49.179V31.939H0Z" transform="translate(1018 420.083)" fill="#e7eaf0"/>
      <path id="Tracé_46-6" data-name="Tracé 46" d="M2887,381.108s6.4-18.029,12.322-9.267,5.01,9.757,8.123,9.267,3.932-18.874,11.388-21.243,17.346,21.243,17.346,21.243v6.176L2887,387.3Z" transform="translate(-1869 64.724)" fill="#fbfcff"/>
      <circle id="Ellipse_2-6" data-name="Ellipse 2" cx="1.282" cy="1.282" r="1.282" transform="translate(1033.385 429.197)" fill="#fbfcff"/>
    </g>
    <g id="Groupe_89" data-name="Groupe 89" transform="translate(-173.158 446.781)">
      <path id="Tracé_45-7" data-name="Tracé 45" d="M0,0H53.017V31.966H0Z" transform="translate(1018 420.083)" fill="#e7eaf0"/>
      <path id="Tracé_46-7" data-name="Tracé 46" d="M2887,381.785s6.894-18.6,13.284-9.56,5.4,10.066,8.757,9.56,4.239-19.471,12.276-21.915,18.7,21.915,18.7,21.915v6.371l-53.017.014Z" transform="translate(-1869 63.879)" fill="#fbfcff"/>
      <circle id="Ellipse_2-7" data-name="Ellipse 2" cx="1" cy="1" r="1" transform="translate(1035.158 429.219)" fill="#fbfcff"/>
    </g>
    <path id="Tracé_16" data-name="Tracé 16" d="M-.015.5A.363.363,0,0,1,.5-.015L4.526,4.013,8.553-.015A.363.363,0,0,1,9.066.5L4.782,4.782a.362.362,0,0,1-.513,0Z" transform="translate(713.888 878.173) rotate(90)" fill="#e7eaf0" fill-rule="evenodd"/>
    <path id="Tracé_51" data-name="Tracé 51" d="M.106,4.39A.363.363,0,0,0,.619,4.9L4.647.875,8.674,4.9a.363.363,0,0,0,.513-.513L4.9.106a.362.362,0,0,0-.513,0Z" transform="translate(915 878.052) rotate(90)" fill="#e7eaf0" fill-rule="evenodd"/>
    <text id="Product_Title" data-name="Product Title" transform="translate(851 709)" fill="#27293f" font-size="11" font-family="Roboto-Regular, Roboto" opacity="0.245"><tspan x="0" y="0">Product Title</tspan></text>
  </g>
</svg>
