<svg xmlns="http://www.w3.org/2000/svg" width="245" height="237" viewBox="0 0 245 237">
  <g id="Groupe_118" data-name="Groupe 118" transform="translate(-1001 -321)">
    <rect id="Rectangle_65" data-name="Rectangle 65" width="245" height="237" transform="translate(1001 321)" fill="#feffff"/>
    <g id="Groupe_58" data-name="Groupe 58">
      <path id="Tracé_45" data-name="Tracé 45" d="M0,0H211V97.72H0Z" transform="translate(1018 420.083)" fill="#e7eaf0"/>
      <path id="Tracé_46" data-name="Tracé 46" d="M2887,421.062s27.438-51.674,52.866-26.56,21.5,27.965,34.849,26.56,16.872-54.094,48.86-60.885S3098,421.062,3098,421.062v17.7l-211,.04Z" transform="translate(-1869 79)" fill="#fbfcff"/>
      <ellipse id="Ellipse_2" data-name="Ellipse 2" cx="7" cy="7.5" rx="7" ry="7.5" transform="translate(1086 445)" fill="#fbfcff"/>
    </g>
    <line id="Ligne_31" data-name="Ligne 31" x2="18" transform="translate(1023 394.5)" fill="none" stroke="#e7eaf0" stroke-linecap="round" stroke-width="10"/>
    <line id="Ligne_32" data-name="Ligne 32" x2="18" transform="translate(1063 394.5)" fill="none" stroke="#e7eaf0" stroke-linecap="round" stroke-width="10"/>
    <line id="Ligne_33" data-name="Ligne 33" x2="18" transform="translate(1103 394.5)" fill="none" stroke="#e7eaf0" stroke-linecap="round" stroke-width="10"/>
    <line id="Ligne_34" data-name="Ligne 34" x2="18" transform="translate(1143 394.5)" fill="none" stroke="#e7eaf0" stroke-linecap="round" stroke-width="10"/>
    <g id="Groupe_56" data-name="Groupe 56" transform="translate(-0.5 15)">
      <circle id="Ellipse_3" data-name="Ellipse 3" cx="11" cy="11" r="11" transform="translate(1018.5 336.5)" fill="#e7eaf0"/>
      <path id="Tracé_47" data-name="Tracé 47" d="M2888.132,272.045s3.027-3.344,6.635-1.114,5.751,5.049,8.078,5.364a9.819,9.819,0,0,0,3.5,0s-5.4,3.307-9,2.711a12.728,12.728,0,0,1-7.792-4.7A16.639,16.639,0,0,1,2888.132,272.045Z" transform="translate(-1869 79)" fill="#fff"/>
      <circle id="Ellipse_4" data-name="Ellipse 4" cx="2.5" cy="2.5" r="2.5" transform="translate(1030 343)" fill="#fff"/>
    </g>
    <g id="Groupe_57" data-name="Groupe 57" transform="translate(124.5)" opacity="0.604">
      <line id="Ligne_27" data-name="Ligne 27" x2="81.5" transform="translate(895.5 532.5)" fill="none" stroke="#d7d7d7" stroke-linecap="round" stroke-width="4"/>
      <line id="Ligne_28" data-name="Ligne 28" x2="198.5" transform="translate(893.5 539.5)" fill="none" stroke="#d7d7d7" stroke-width="2"/>
      <line id="Ligne_29" data-name="Ligne 29" x2="211.5" transform="translate(893.5 546.5)" fill="none" stroke="#d7d7d7" stroke-width="2"/>
      <line id="Ligne_30" data-name="Ligne 30" x2="198.5" transform="translate(893.5 553.5)" fill="none" stroke="#d7d7d7" stroke-width="2"/>
    </g>
    <text id="Post_Title" data-name="Post Title" transform="translate(1018 339)" fill="#27293f" font-size="11" font-family="Roboto-Regular, Roboto" opacity="0.252"><tspan x="0" y="0">Post Title</tspan></text>
  </g>
</svg>
